<?xml version="1.0" encoding="UTF-8" standalone="no"?>
<!DOCTYPE svg PUBLIC "-//W3C//DTD SVG 1.1//EN" "http://www.w3.org/Graphics/SVG/1.1/DTD/svg11.dtd">
<svg width="100%" height="100%" viewBox="0 0 714 747" version="1.1" xmlns="http://www.w3.org/2000/svg" xmlns:xlink="http://www.w3.org/1999/xlink" xml:space="preserve" xmlns:serif="http://www.serif.com/" style="fill-rule:evenodd;clip-rule:evenodd;stroke-linecap:round;stroke-linejoin:round;stroke-miterlimit:1.5;">
    <g>
        <path d="M502.886,462.769L482.911,475.267L546.063,691.292C544.745,716.524 530.325,722.455 501.47,706.677L332.571,591.291C327.156,587.902 321.506,588.047 315.626,591.626L159.883,691.292C133.836,710.04 100.699,691.048 108.878,662.926L165.249,486.346L141.821,465.458C141.821,465.458 118.495,504.367 83.405,493.743C65.333,488.724 50.51,474.961 38.477,453.684C-3.465,348.462 35.331,289.843 92.547,259.85L104.105,238.222C133.904,107.213 222.934,27.434 353.353,25.066C509.006,28.584 599.548,117.35 612.645,262.541L630.721,282.687C719.898,335.75 686.986,516.145 577.237,516.691C535.698,516.295 502.886,462.769 502.886,462.769Z" style="stroke:black;stroke-width:1px;"/>
        <path d="M498.296,313.842L410.79,300.944L355.164,129.146L256.679,299.873L107.951,315.662C103.568,317.264 102.833,320.257 106.253,324.832L194.56,428.083C205.683,439.875 203.107,453.066 192.523,483.844L147.632,635.085C142.701,645.168 145.408,645.969 154.599,639.824L305.242,548.267C312.834,541.782 319.993,542.675 326.842,548.825L493.092,661.702C498.388,665.807 500.664,664.937 499.642,658.636L450.45,457.269C447.103,445.56 448.641,438.737 454.212,435.947L484.871,405.011C483.707,371.45 488.311,341.084 498.296,313.842Z" style="fill:rgb(255,215,58);stroke:black;stroke-width:1px;"/>
        <path d="M257.2,330.776C229.534,330.269 225.267,419.004 250.407,420.834C278.44,422.875 284.406,331.275 257.2,330.776Z" style="stroke:black;stroke-width:1px;"/>
        <path d="M107.834,278.828L93.109,278.27C35.829,320.025 32.893,413.501 67.197,468.289L78.588,468.724C49.251,392.564 62.419,323.891 107.834,278.828Z" style="fill:rgb(212,0,0);stroke:black;stroke-width:1px;"/>
        <path d="M172.812,243.566C189.823,183.135 219.124,144.18 253.08,117.207C285.802,91.728 320.568,80.154 357,79.901C395.537,80.678 426.165,91.619 451.717,109.461C474.403,125.833 493.345,148.008 508.611,175.881C527.088,215.757 535.263,245.329 533.707,265.172C524.088,271.767 516.761,280.877 510.48,291.181L441.923,278.717L375.859,109.906C364.166,98.693 352.473,97.933 340.78,109.906L246.491,275.778L194.406,280.675C188.827,266.471 181.308,253.142 172.812,243.566Z" style="fill:rgb(146,0,255);stroke:black;stroke-width:1px;"/>
        <path d="M554.017,234.095L571.131,233.68C555.11,138.583 505.204,74.778 397,49.168C349.03,38.059 299.663,45.208 248.794,68.878C182.399,105.471 140.714,173.556 119.547,238.561L131.596,238.505C162.916,173.932 196.982,116.354 250.068,90.235C302.284,63.625 353.469,54.818 397.571,66.466C484.33,88.811 533.339,135.236 554.017,234.095Z" style="fill:rgb(212,0,0);stroke:black;stroke-width:1px;"/>
        <path d="M113.487,262.55L119.573,252.5L131.596,252.589L126.494,262.523L113.487,262.55Z" style="fill:rgb(212,0,0);stroke:black;stroke-width:1px;"/>
        <g transform="matrix(1,0,0,1,-9.616914,-4.991388)">
            <path d="M576.584,262.483L579.664,252.5L591.594,252.5L587.907,262.483L576.584,262.483Z" style="fill:rgb(212,0,0);stroke:black;stroke-width:1px;"/>
        </g>
        <path d="M572.842,274.989L557.017,274.891C499.127,313.215 487.299,423.8 540.377,486.128L551.482,486.346C506.956,395.326 515.174,325.944 572.842,274.989Z" style="fill:rgb(212,0,0);stroke:black;stroke-width:1px;"/>
        <path d="M626.464,337.471L598.511,337.487L598.576,356.462L604.484,356.492L604.487,425.471L599.542,425.516L599.462,444.572L625.484,444.618L625.515,425.518L620.49,425.629L620.538,400.539L637.522,400.509L637.506,425.533L633.494,425.534L633.478,444.557L656.527,444.571L657.997,426.356L652.499,426.514L652.493,357.484L658.542,357.506L658.493,337.521L633.538,337.471L633.602,357.552L638.501,357.536L638.517,380.478L620.535,380.525L620.537,356.493L626.495,356.493L626.464,337.471Z" style="fill:rgb(212,0,0);stroke:black;stroke-width:1px;"/>
        <path d="M577.197,323.257C549.544,370.136 550.9,415.373 572.012,454.12L581.095,453.684C564.935,425.404 566.745,373.719 583.879,323.475L577.197,323.257Z" style="fill:rgb(212,0,0);stroke:black;stroke-width:1px;"/>
        <path d="M385.616,332.244C348.243,328.939 350.885,419.7 374.086,420.868C404.047,422.375 415.246,334.865 385.616,332.244Z" style="stroke:black;stroke-width:1px;"/>
        <path d="M406.736,440.182L396.804,436.187C419.57,411.805 445.861,437.65 426.143,460.902L421.348,453.71C365.115,529.525 267.644,512.449 236.182,455.537C230.49,441.886 238.895,435.452 252.221,445.605C294.692,495.191 369.009,483.478 406.736,440.182Z" style="stroke:black;stroke-width:1px;"/>
    </g>
</svg>
